<?xml version="1.0" encoding="UTF-8"?>
<svg width="307px" height="307px" viewBox="0 0 307 307" version="1.1" xmlns="http://www.w3.org/2000/svg" xmlns:xlink="http://www.w3.org/1999/xlink">
    <!-- Generator: Sketch 61.2 (89653) - https://sketch.com -->
    <title>Group 8</title>
    <desc>Created with Sketch.</desc>
    <g id="Page-1" stroke="none" stroke-width="1" fill="none" fill-rule="evenodd">
        <g id="Desktop-HD" transform="translate(-1003.000000, -207.000000)">
            <g id="Group-8" transform="translate(1003.356304, 207.421708)">
                <path d="M152.763306,306 C68.3990972,306 0,237.640067 0,153.314909 C0,142.933031 1.03568714,132.799277 3.01191381,123 C9.60990801,127.174394 16.405853,131.298507 23.3997487,135.36906 C22.5915409,141.236603 22.17486,147.225475 22.17486,153.314909 C22.17486,225.399988 80.6479841,283.837128 152.763306,283.837128 C196.607759,283.837128 235.399547,262.250299 259.088019,229.127321 C266.656082,231.078431 274.311636,232.965052 282,234.775158 C254.932147,277.576084 207.172424,306 152.763306,306" id="Fill-47" fill="#2D2C30" opacity="0.301850818"></path>
                <path d="M282.427564,235 C274.727089,233.183759 267.059476,231.290745 259.479492,229.333021 C274.781858,207.890192 283.785827,181.628182 283.785827,153.263677 C283.785827,149.974482 283.665336,146.712706 283.435308,143.48493 C290.807171,143.815056 298.25571,144.062925 305.73711,144.226343 C305.91237,147.213927 306,150.232221 306,153.263677 C306,183.313908 297.357504,211.346095 282.427564,235 M23.419951,135.257008 C16.4150381,131.17266 9.60838774,127.03457 3,122.846029 C5.67928334,109.528026 10.0881613,96.8242107 15.974698,85 C22.5206494,88.097261 29.307583,91.0947165 36.324545,93.990173 C29.8771772,106.689601 25.4343427,120.588889 23.419951,135.257008" id="Fill-48" fill="#32343B" opacity="0.301850818"></path>
                <path d="M306,144 C298.512465,143.836769 291.057819,143.589185 283.679911,143.259437 C281.443517,112.985104 268.891208,85.576617 249.531053,64.5264519 L253.357041,60.9901557 L248.654036,63.584316 C224.777241,38.1225446 190.814749,22.2124979 153.124933,22.2124979 C102.159269,22.2124979 57.9904889,51.3244983 36.3665327,93.8214019 C29.3438172,90.9292637 22.5513187,87.9352434 16,84.8415319 C41.0892705,34.5446191 93.0711783,0 153.124933,0 C172.375462,0 190.803786,3.55053786 207.77407,10.0293657 L208.17969,11.3658841 L208.497609,10.3076244 C263.037118,31.4509076 302.44808,82.9123442 306,144" id="Fill-49" fill="#393D47" opacity="0.301850818"></path>
                <path d="M207.54,11 L207.17,10 C207.39,10.0688525 207.61,10.1385246 207.83,10.2081967 L207.54,11" id="Fill-50" fill="#FDE3D0"></path>
                <path d="M152.636313,284 C80.4945574,284 22,225.353491 22,153.010145 C22,146.898894 22.4168336,140.888565 23.2253377,135 C87.9012861,172.767772 169.036145,205.830617 259,229.094178 C235.302845,262.335829 196.496838,284 152.636313,284" id="Fill-54" fill="#4A3B37" opacity="0.301850818"></path>
                <path d="M258.72782,229 C168.781839,205.799849 87.6630991,172.827126 23,135.162299 C25.011561,120.531337 29.4481523,106.667258 35.88646,94 C101.609484,121.090363 187.453588,139.112681 282.649973,143.369378 C282.879678,146.588977 283,149.84249 283,153.123353 C283,181.416006 274.008683,207.611489 258.72782,229" id="Fill-55" fill="#4D413F" opacity="0.301850818"></path>
                <path d="M283,143 C187.712383,138.739036 101.78601,120.698653 36,93.5811356 C57.5965558,51.1007114 101.709369,22 152.610452,22 C190.25251,22 224.171967,37.9038771 248.018507,63.355775 L245.467431,64.7662407 L239.850684,58.6885351 L243.847005,65.9346933 L237.770407,71.5557496 L245.018529,67.5521295 L250.646224,73.6298351 L246.638955,66.3836769 L248.894413,64.2975456 C268.230036,85.3395478 280.76644,112.737407 283,143" id="Fill-56" fill="#524849" opacity="0.301850818"></path>
                <path d="M262,153.49453 C262,158.450667 261.671779,163.319279 261.037218,168.100365 C260.796523,169.916521 260.501124,171.721737 260.172903,173.516011 C258.575561,182.191987 255.949793,190.506919 252.426887,198.32952 C251.68292,200.003447 250.884248,201.644552 250.063696,203.274716 C245.90623,211.403657 240.764101,218.941799 234.790478,225.735974 C233.291602,227.442724 231.738023,229.10571 230.14068,230.713993 C210.305191,250.65889 182.844033,263 152.49453,263 C127.724784,263 104.869661,254.772593 86.5221062,240.899785 C84.4214917,239.313384 82.3865215,237.661338 80.4062547,235.932707 C70.1985812,226.983214 61.6648349,216.184743 55.3411101,204.040566 C54.0501074,201.578908 52.8685118,199.073488 51.7744417,196.502423 C47.6935605,186.973073 44.936504,176.754459 43.7220862,166.054454 C43.4923315,164.12889 43.328221,162.192386 43.2078733,160.234001 C43.0656442,158.002098 43,155.759255 43,153.49453 C43,146.547185 43.6455013,139.763951 44.8818005,133.177649 C45.2209622,131.361493 45.6038867,129.567218 46.0415147,127.794824 C48.0327222,119.468951 50.9867113,111.504121 54.7831343,104.042564 C55.6036869,102.401459 56.4680022,100.793176 57.387021,99.2067742 C62.4525653,90.3448069 68.7325274,82.2486886 75.9862117,75.1700555 C77.9774192,73.2116701 80.0452116,71.351751 82.1786481,69.5574761 C101.204526,53.605935 125.733576,44 152.49453,44 C173.664785,44 193.434631,50.0064445 210.184843,60.4110506 C212.383924,61.7786382 214.539242,63.2228106 216.628915,64.743568 C228.116651,73.0475596 237.919518,83.5287506 245.43578,95.5744617 C247.033122,98.1236449 248.531998,100.749413 249.910526,103.429885 C254.888545,113.101464 258.466154,123.604536 260.391717,134.676525 C260.719938,136.591148 261.004396,138.527651 261.234151,140.486037 L261.234151,140.496978 C261.737423,144.763851 262,149.096368 262,153.49453" id="Fill-61" fill="#73308A"></path>
                <path d="M187.989239,227.338441 C127.608241,227.338441 78.6633682,178.390855 78.6633682,118.011388 C78.6633682,96.6986747 84.7691892,76.8146734 95.3096493,60 C64.4965528,79.3334883 44,113.608377 44,152.674039 C44,213.053506 92.9503339,262 153.32041,262 C192.39111,262 226.666721,241.50541 246,210.685427 C229.178955,221.232554 209.299538,227.338441 187.989239,227.338441" id="Fill-62" fill="#581270"></path>
                <path d="M217,63.824 C210.429872,64.6666667 206.174096,66.512 201.731855,68.432 C195.414002,71.1733333 188.887748,74 175.988798,74 C163.089848,74 156.563594,71.1733333 150.245741,68.432 C144.191132,65.808 138.465578,63.3333333 126.740257,63.3333333 C115.003967,63.3333333 109.278413,65.808 103.223804,68.432 C96.905951,71.1733333 90.3796966,74 77.4807468,74 C76.976196,74 76.4826138,74 76,73.9893333 C77.996266,72.08 80.0693116,70.2666667 82.208168,68.5173333 C90.8732789,67.952 95.8091015,65.808 100.9972,63.568 C107.304084,60.8266667 113.841307,58 126.740257,58 C139.628238,58 146.165461,60.8266667 152.483314,63.568 C158.537923,66.192 164.263477,68.6666667 175.988798,68.6666667 C187.725088,68.6666667 193.439673,66.192 199.505251,63.568 C202.828705,62.128 206.207001,60.656 210.539557,59.6 C212.744224,60.9333333 214.905018,62.3413333 217,63.824" id="Fill-63" fill="#B43583"></path>
                <path d="M250,103.114667 C249.464256,102.890667 248.928511,102.666667 248.403701,102.432 C242.357443,99.808 236.66106,97.3333333 224.962153,97.3333333 C213.263246,97.3333333 207.566863,99.808 201.520606,102.432 C195.222876,105.162667 188.71741,108 175.859546,108 C163.001682,108 156.496215,105.162667 150.198486,102.432 C144.163162,99.808 138.455845,97.3333333 126.767872,97.3333333 C115.068966,97.3333333 109.361648,99.808 103.326325,102.432 C97.0285955,105.162667 90.5231287,108 77.6652649,108 C66.8191758,108 60.4886459,105.984 55,103.712 C55.8200168,102.112 56.6837679,100.544 57.6021867,98.9973333 C62.5988225,101.024 68.1530698,102.666667 77.6652649,102.666667 C89.3641716,102.666667 95.0605551,100.181333 101.106812,97.5573333 C107.393608,94.8266667 113.910008,92 126.767872,92 C139.614802,92 146.131203,94.8266667 152.428932,97.5573333 C158.464256,100.181333 164.171573,102.666667 175.859546,102.666667 C187.558452,102.666667 193.254836,100.181333 199.301093,97.5573333 C205.598823,94.8266667 212.104289,92 224.962153,92 C234.452481,92 240.487805,93.5466667 245.528175,95.456 C247.124474,97.9413333 248.622372,100.501333 250,103.114667" id="Fill-64" fill="#B43583"></path>
                <path d="M261,139.826667 C255.735171,138.76 251.879393,137.085333 248.100076,135.442667 C242.059722,132.818667 236.3689,130.333333 224.681416,130.333333 C212.993932,130.333333 207.30311,132.818667 201.262756,135.442667 C194.971176,138.173333 188.472061,141 175.626751,141 C162.781441,141 156.282326,138.173333 149.990746,135.442667 C143.961315,132.818667 138.25957,130.333333 126.583009,130.333333 C114.895525,130.333333 109.19378,132.818667 103.164349,135.442667 C96.8727686,138.173333 90.3736536,141 77.5283439,141 C64.6830341,141 58.1839191,138.173333 51.8923388,135.442667 C49.6531479,134.472 47.4685714,133.512 45,132.701333 C45.3386094,130.930667 45.7209102,129.181333 46.1578255,127.453333 C49.0960809,128.381333 51.6301896,129.490667 54.1206068,130.568 C60.1500379,133.192 65.8517826,135.666667 77.5283439,135.666667 C89.2158281,135.666667 94.9066498,133.192 100.947004,130.568 C107.227661,127.837333 113.737699,125 126.583009,125 C139.417396,125 145.927434,127.837333 152.219014,130.568 C158.248445,133.192 163.95019,135.666667 175.626751,135.666667 C187.314235,135.666667 193.005057,133.192 199.045411,130.568 C205.336991,127.837333 211.836106,125 224.681416,125 C237.526726,125 244.025841,127.837333 250.317421,130.568 C253.408597,131.912 256.401466,133.213333 260.158938,134.162667 C260.486625,136.029333 260.770619,137.917333 261,139.826667" id="Fill-65" fill="#B43583"></path>
                <path d="M261,167.322667 C260.759116,169.093333 260.463486,170.853333 260.135008,172.602667 C255.393973,171.525333 251.791662,169.968 248.265997,168.432 C242.21105,165.808 236.506479,163.333333 224.790758,163.333333 C213.075038,163.333333 207.370467,165.808 201.31552,168.432 C195.008739,171.173333 188.493923,174 175.617579,174 C162.741236,174 156.226419,171.173333 149.919638,168.432 C143.87564,165.808 138.160121,163.333333 126.455349,163.333333 C114.739628,163.333333 109.024108,165.808 102.98011,168.432 C96.67333,171.173333 90.1585133,174 77.2821698,174 C64.4058262,174 57.8910095,171.173333 51.584229,168.432 C49.0002009,167.312 46.4818684,166.213333 43.5146158,165.328 C43.2846811,163.450667 43.120442,161.562667 43,159.653333 C47.2373682,160.709333 50.5549975,162.149333 53.8178805,163.568 C59.8618785,166.192 65.5773983,168.666667 77.2821698,168.666667 C88.9978905,168.666667 94.7024611,166.192 100.757408,163.568 C107.05324,160.826667 113.579006,158 126.455349,158 C139.320743,158 145.846509,160.826667 152.15329,163.568 C158.197288,166.192 163.912808,168.666667 175.617579,168.666667 C187.3333,168.666667 193.03787,166.192 199.092818,163.568 C205.399598,160.826667 211.914415,158 224.790758,158 C237.667102,158 244.181919,160.826667 250.488699,163.568 C253.762531,164.986667 256.926871,166.362667 261,167.322667" id="Fill-66" fill="#B43583"></path>
                <path d="M253,198.368 C252.254744,200 251.454689,201.6 250.632715,203.189333 C250.040894,202.933333 249.460033,202.688 248.879171,202.432 C242.818484,199.808 237.108506,197.333333 225.381679,197.333333 C213.654853,197.333333 207.944875,199.808 201.884188,202.432 C195.571429,205.162667 189.050436,208 176.161887,208 C163.273337,208 156.752345,205.162667 150.439586,202.432 C144.389858,199.808 138.66892,197.333333 126.953053,197.333333 C115.226227,197.333333 109.505289,199.808 103.455562,202.432 C97.1428026,205.162667 90.6218103,208 77.7332606,208 C67.2229553,208 60.9540349,206.112 55.5728462,203.936 C54.2796074,201.536 53.0959651,199.093333 52,196.586667 C52.7562159,196.917333 53.5014722,197.237333 54.2467285,197.557333 C60.2964558,200.181333 66.0173937,202.666667 77.7332606,202.666667 C89.4600872,202.666667 95.1700654,200.181333 101.230752,197.557333 C107.532552,194.826667 114.064504,192 126.953053,192 C139.830643,192 146.362595,194.826667 152.675354,197.557333 C158.725082,200.181333 164.44602,202.666667 176.161887,202.666667 C187.888713,202.666667 193.598691,200.181333 199.659378,197.557333 C205.972137,194.826667 212.49313,192 225.381679,192 C238.270229,192 244.791221,194.826667 251.10398,197.557333 C251.73964,197.834667 252.36434,198.101333 253,198.368" id="Fill-67" fill="#B43583"></path>
                <path d="M235,225.672 C233.504854,227.336 231.955141,228.957333 230.361775,230.525333 C228.746581,230.397333 227.000425,230.333333 225.090568,230.333333 C213.413153,230.333333 207.727234,232.818667 201.692084,235.442667 C195.405924,238.173333 188.912409,241 176.078166,241 C163.243923,241 156.750407,238.173333 150.464248,235.442667 C144.440011,232.818667 138.743179,230.333333 127.076678,230.333333 C115.399263,230.333333 109.702431,232.818667 103.678194,235.442667 C99.0727092,237.448 94.347176,239.496 87.1006307,240.456 C85.0052441,238.909333 82.9753384,237.298667 81,235.613333 C90.7457303,235.229333 95.9514563,232.957333 101.46276,230.568 C107.738006,227.826667 114.242435,225 127.076678,225 C139.900007,225 146.404436,227.826667 152.690596,230.568 C158.714832,233.192 164.411665,235.666667 176.078166,235.666667 C187.755581,235.666667 193.4415,233.192 199.476649,230.568 C205.762809,227.826667 212.256325,225 225.090568,225 C228.899369,225 232.151584,225.245333 235,225.672" id="Fill-68" fill="#B43583"></path>
            </g>
        </g>
    </g>
</svg>