<?xml version="1.0" encoding="UTF-8"?>
<svg width="93px" height="93px" viewBox="0 0 93 93" version="1.1" xmlns="http://www.w3.org/2000/svg" xmlns:xlink="http://www.w3.org/1999/xlink">
    <!-- Generator: Sketch 61.2 (89653) - https://sketch.com -->
    <title>Group 10</title>
    <desc>Created with Sketch.</desc>
    <g id="Page-1" stroke="none" stroke-width="1" fill="none" fill-rule="evenodd">
        <g id="Desktop-HD" transform="translate(-504.000000, -584.000000)">
            <g id="146231-OUBG69-67" transform="translate(67.000000, 540.000000)">
                <g id="Group-10" transform="translate(437.000000, 44.000000)">
                    <polyline id="Fill-30" fill="#FFFFFE" points="53.2413242 50 50.0062524 41.3382125 41 39.2413242 49.6617875 36.0051377 51.7586758 27 54.9948623 35.6617875 64 37.7575611 55.3382125 40.9937476 53.2413242 50"></polyline>
                    <path d="M46.8298246,93 C20.9661323,93 0,72.1360629 0,46.3984379 C0,28.3845082 10.2735478,12.7554351 25.3071764,5 C26.7369604,6.43485399 28.1931404,7.86970797 29.6746166,9.30127854 C15.5824457,15.7641411 5.80272328,29.9441321 5.80272328,46.3984379 C5.80272328,68.9467688 24.1710481,87.2255609 46.8298246,87.2255609 C66.4233643,87.2255609 82.8086887,73.5577832 86.883573,55.2800856 C88.5751175,56.4369434 90.2765604,57.5850455 92,58.7353366 C86.565721,78.4851002 68.4008655,93 46.8298246,93" id="Fill-31" fill="#17333C" opacity="0.3"></path>
                    <path d="M91.3499767,59 C89.6353967,57.8484865 87.9427004,56.6991643 86.2598516,55.5410771 C86.8933818,52.6792758 87.2282009,49.7035283 87.2282009,46.6499907 C87.2282009,24.0787929 68.9543019,5.77948004 46.412007,5.77948004 C40.3196132,5.77948004 34.5368723,7.11725162 29.3449885,9.51340761 C27.8711281,8.08031569 26.4224339,6.64393686 25,5.20755803 C31.4108002,1.87901578 38.6914734,0 46.412007,0 C72.141648,0 93,20.8861096 93,46.6499907 C93,50.9262581 92.4255555,55.0666667 91.3499767,59" id="Fill-32" fill="#1B3B48" opacity="0.3"></path>
                    <path d="M46.9861912,88 C24.3500088,88 6,69.7034467 6,47.133206 C6,30.6629119 15.7699706,16.4691424 29.8480894,10 C36.4811655,16.4253209 43.6240556,22.8133936 51.2383039,29.1379252 L49.5286689,36.4604905 L40.9914814,39.6408326 L49.8681787,41.7015366 L53.0567138,50.2138543 L55.1234384,41.3630158 L62.8805225,38.4740864 C70.5145481,44.3899829 78.564995,50.2467204 87,56.0234838 C82.9291789,74.3189415 66.5601932,88 46.9861912,88 M62.0136189,37.8003315 L54.7850273,36.1230653 L52.5842569,30.2509902 C55.6541284,32.7794882 58.7943191,35.2937442 62.0136189,37.8003315" id="Fill-33" fill="#20494C" opacity="0.3"></path>
                    <path d="M87.029697,56 C78.6127294,50.1950328 70.5794976,44.309701 62.9617966,38.3649214 L63.7402318,38.072086 L62.0967468,37.6878771 C58.8843311,35.1690519 55.7508554,32.6425206 52.6875484,30.1016777 L51.7007996,27.4485446 L51.3444736,28.9831785 C43.7465076,22.6277687 36.6188919,16.2085076 30,9.75181646 C35.2023591,7.34418072 40.9967675,6 47.1014537,6 C69.6892308,6 88,24.3869831 88,47.0663173 C88,50.1344841 87.6645054,53.1244881 87.029697,56" id="Fill-34" fill="#245156" opacity="0.3"></path>
                    <polyline id="Fill-35" fill="#B3DBCF" points="53.2413242 50 50.0062524 41.3382125 41 39.2413242 49.6617875 36.0051377 51.7586758 27 54.9948623 35.6617875 62.328955 37.3685052 64 37.7575611 63.2085111 38.0540907 55.3382125 40.9937476 53.2413242 50"></polyline>
                    <path d="M80,46.5 C80,65.0016124 65.0016124,80 46.5,80 C27.9983876,80 13,65.0016124 13,46.5 C13,27.9983876 27.9983876,13 46.5,13 C65.0016124,13 80,27.9983876 80,46.5" id="Fill-36" fill="#43B59B"></path>
                    <path d="M60.1132949,66.9210512 C41.8688571,66.9210512 27.0789488,52.1311429 27.0789488,33.8867051 C27.0789488,28.1277066 28.5551133,22.7143784 31.146554,18 C20.9275383,23.6165998 14,34.4813016 14,46.9656539 C14,65.2100917 28.7899083,80 47.0343461,80 C59.5186984,80 70.3834002,73.0724617 76,62.853446 C71.2856216,65.4448867 65.8722934,66.9210512 60.1132949,66.9210512" id="Fill-37" fill="#38A48C"></path>
                </g>
            </g>
        </g>
    </g>
</svg>