<?xml version="1.0" encoding="UTF-8"?>
<svg width="431px" height="218px" viewBox="0 0 431 218" version="1.1" xmlns="http://www.w3.org/2000/svg" xmlns:xlink="http://www.w3.org/1999/xlink">
    <!-- Generator: Sketch 61.2 (89653) - https://sketch.com -->
    <title>Group 9</title>
    <desc>Created with Sketch.</desc>
    <g id="Page-1" stroke="none" stroke-width="1" fill="none" fill-rule="evenodd">
        <g id="Desktop-HD" transform="translate(-464.000000, -747.000000)">
            <g id="146231-OUBG69-67" transform="translate(67.000000, 540.000000)">
                <g id="Group-9" transform="translate(397.000000, 207.000000)">
                    <path d="M430.896046,48.9319461 C430.851961,48.1157453 430.796855,47.300646 430.730728,46.4866482 L430.212732,40 L423.787373,41.1125004 C422.982825,41.252389 422.178278,41.4032925 421.384751,41.5674139 C412.171029,43.4443452 403.276921,46.9305469 395,51.7098925 L427.644792,77 C430.212732,67.7948855 431.369958,58.3199071 430.896046,48.9319461" id="Fill-69" fill="#ED3947"></path>
                    <polyline id="Fill-70" fill="#ED3947" points="350 106 333.908076 109.655569 321 126.491491 346.254931 128 350 106"></polyline>
                    <polyline id="Fill-71" fill="#ED3947" points="386.473079 134 387 150.918602 373.881861 168 366 143.291554 386.473079 134"></polyline>
                    <path d="M396.051973,57 C376.978688,69.9290456 360.424309,89.8532839 350.744672,112.110715 L342,132.249852 L352.196618,140.124378 L362.382236,148 L379.772584,134.528224 C398.977863,119.639867 414.201292,98.6838922 422,77.044845 L396.051973,57" id="Fill-72" fill="#ED3947"></path>
                    <path d="M395.392217,52 C374.849974,63.7435444 358.105735,83.4163789 349.65105,106.475182 L342,127.340243 L367.628264,147 L386.122888,134.457642 C406.566052,120.596641 421.636969,99.6356785 428,77.021509 L395.392217,52" id="Fill-73" fill="#E0F2F6"></path>
                    <polyline id="Fill-74" fill="#ED3947" points="347.618093 148 345 146.035392 367.393048 118 370 119.964608 347.618093 148"></polyline>
                    <path d="M410.43711,93.4131953 C404.687071,100.833672 394.008425,102.187693 386.582215,96.4364347 C379.167106,90.6851767 377.81285,80.0072815 383.56289,72.5868047 C389.312929,65.166328 399.991575,63.8123074 407.417785,69.5635653 C414.832894,75.3148233 416.18715,85.9927185 410.43711,93.4131953" id="Fill-75" fill="#ED3947"></path>
                    <path d="M394.238055,71 C391.321844,71.5445272 388.581044,73.1151512 386.629594,75.6621688 C382.386836,81.1692936 383.384487,89.0953119 388.855124,93.3631679 C392.74706,96.4028004 397.844947,96.7551415 402,94.7261426 C399.620986,91.8245749 397.570867,88.5563073 395.926387,84.8561733 C394.183239,80.7495769 393.580263,75.801338 394.238055,71" id="Fill-76" fill="#319ECC"></path>
                    <path d="M404.1672,73.6392027 C401.242572,71.3394735 397.630438,70.5799096 394.258385,71.215463 C393.603618,76.028618 394.203821,80.9890354 395.938955,85.1057389 C397.575874,88.8149796 399.616566,92.091291 401.984642,95 C403.654299,94.1762164 405.171177,92.9748653 406.382497,91.3848744 C410.605747,85.8630884 409.612683,77.9186699 404.1672,73.6392027" id="Fill-77" fill="#3DBACE"></path>
                    <path d="M122,79.1914487 L174.516685,79.1914487 C193.331748,79.1925444 210.361823,86.8352217 222.702615,99.1982795 C235.032477,111.563529 242.662125,128.633818 242.662125,147.5 C242.662125,186.436565 274.142623,218 312.990432,218 L332.272237,218 C372.9892,218 406,184.911316 406,144.092297 L406,108.696018 L403.813854,108.696018 L403.813854,144.092297 C403.813854,163.899706 395.80163,181.822469 382.859648,194.803516 C369.906735,207.783466 352.024063,215.808551 332.272237,215.808551 L312.990432,215.808551 C294.167717,215.808551 277.137643,208.164778 264.807781,195.801721 C252.466988,183.436471 244.848271,166.366182 244.848271,147.5 C244.848271,108.563435 213.356842,77 174.516685,77 L122,77 L122,79.1914487" id="Fill-78" fill="#C0D2D2"></path>
                    <path d="M137.313939,135.699161 L108.098474,152.421236 C95.0910709,159.867312 78.532611,155.318337 71.1151394,142.262699 L45.9434773,97.9599175 C37.714617,83.4755127 42.7877121,64.866366 57.2186036,56.6069911 L81.0631362,42.9578657 C95.4940277,34.6984907 114.034422,39.7914972 122.263282,54.274803 L147.434944,98.5786838 C154.852416,111.634321 150.321342,128.254184 137.313939,135.699161" id="Fill-79" fill="#84AAB5"></path>
                    <path d="M57,174.159656 L100.676987,180 L103,162.676688 L76.6732502,159.156838 C67.0917757,157.874917 58.2839132,164.591965 57,174.159656" id="Fill-80" fill="#D2DFD7"></path>
                    <polyline id="Fill-81" fill="#668D9A" points="98.5726174 191 55 184.985786 56.4273826 174 100 180.014214 98.5726174 191"></polyline>
                    <path d="M82.1944452,113 L76,159.422778 L102.610018,163 L105.86393,138.619219 C106.622813,132.927886 110.278551,128.518829 115,126.423348 C112.449282,123.052168 109.869082,119.667836 107.08251,116.344877 L82.1944452,113" id="Fill-82" fill="#D2DFD7"></path>
                    <path d="M118.274003,93 L108.375732,116.501666 L108,116.451364 C110.771299,119.766879 113.337356,123.143631 115.874093,126.50726 C119.596668,124.850596 123.983834,124.643923 128.135352,126.416499 L150.573966,136 L161,111.247362 L118.274003,93" id="Fill-83" fill="#FFFFFE"></path>
                    <path d="M184,102.395018 L166.44377,143 L150,136.158813 L160.581701,111.684309 C164.434235,102.776173 174.918234,98.6172278 184,102.395018" id="Fill-84" fill="#FFFFFE"></path>
                    <polyline id="Fill-85" fill="#9DC1C9" points="176.877547 147 194 106.230573 184.124619 102 167 142.77052 176.877547 147"></polyline>
                    <path d="M130.654587,65.1689195 L103.490709,80.559474 C98.2010641,83.556951 91.465781,81.7251595 88.4499003,76.4697146 C85.4329169,71.2142697 87.276629,64.5225337 92.5662742,61.5250567 L119.729049,46.1355977 C121.837409,44.9403318 122.575114,42.2638566 121.37207,40.1691285 L107.720661,16.3843236 C104.703678,11.1288786 106.54739,4.43714266 111.837035,1.4407612 C117.12668,-1.55671582 123.861963,0.273980121 126.878947,5.53052061 L140.530356,29.3153255 C147.757442,41.9056055 143.326799,57.9896552 130.654587,65.1689195" id="Fill-86" fill="#FFFFFE"></path>
                    <path d="M50.6293634,110.580475 L77.4946815,95.3135299 C82.7264003,92.341214 84.5499221,85.7032228 81.5659774,80.4899871 C78.5820327,75.2767514 71.9215976,73.4596719 66.6898787,76.4330746 L39.8234701,91.6989329 C37.7381988,92.884599 35.0738066,92.1575498 33.8850275,90.0796456 L20.3820233,66.4858688 C17.3980786,61.2726331 10.7376435,59.4555536 5.50483401,62.4289564 C0.27311515,65.4023591 -1.549316,72.0392635 1.43353809,77.253586 L14.9365423,100.847363 C22.0833953,113.336524 38.0948325,117.703166 50.6293634,110.580475" id="Fill-87" fill="#D2DFD7"></path>
                    <polyline id="Fill-88" fill="#FFFFFE" points="87.5131565 23 86.2283931 18.7773271 82 17.5120125 86.2226729 16.2272491 87.4879875 12 88.7727509 16.2215289 93 17.4868435 88.7784711 18.7716069 87.5131565 23"></polyline>
                    <path d="M138,101.242283 L78.7476487,135 L58.5623973,99.6363852 C53.2153833,90.2697412 56.5121619,78.2353407 65.8874785,72.8932729 L91.0457811,58.5592706 C100.422191,53.2182952 112.467735,56.5120241 117.813655,65.8786681 L138,101.242283" id="Fill-89" fill="#FFFFFE"></path>
                    <path d="M95,135 L69.3602682,91.5757315 C65.3394093,84.5726301 66.1689528,76.0871764 70.7678445,70 L65.9748043,72.7138114 C56.5166852,78.0713154 53.1907896,90.1404902 58.5850283,99.5341997 L78.9485549,135 L95,135" id="Fill-90" fill="#D2DFD7"></path>
                    <path d="M98.8422502,64.464392 L68.3341237,81.9195361 C64.390793,84.1744495 59.3252968,82.7837924 57.0777069,78.8287026 C54.8290307,74.872523 56.2151712,69.7916113 60.1574156,67.535608 L90.6666285,50.0804639 C94.6088729,47.8255505 99.674369,49.2162076 101.923045,53.1712974 C104.170635,57.127477 102.784495,62.2094786 98.8422502,64.464392" id="Fill-91" fill="#9DC1C9"></path>
                    <path d="M97.737477,21.0903134 C107.385633,38.1589592 100.102093,60.6861841 81.4697042,71.4053684 C62.8373154,82.1256526 39.9106794,76.9783324 30.262523,59.9096866 C20.6143666,42.8410408 27.897907,20.3138159 46.5302958,9.59463157 C65.1637748,-1.12565264 88.0893206,4.02166757 97.737477,21.0903134" id="Fill-92" fill="#FFFFFE"></path>
                    <path d="M101.831604,33 C100.671329,45.0248535 93.4032529,56.7403045 81.471177,63.6110202 C62.833715,74.3432102 39.9008366,69.1901734 30.2500532,52.1025715 C27.9404081,48.0131744 26.6111081,43.6088694 26.1651002,39.1307924 C25.5119003,45.8880972 26.7812236,52.7433978 30.2533247,58.8907064 C39.904108,75.9783084 62.8369865,81.1313451 81.4744484,70.3991551 C95.6518309,62.2368771 103.249233,47.2347135 101.831604,33" id="Fill-93" fill="#D2DFD7"></path>
                    <path d="M85.1229017,22.0714841 L90.903586,32.1834861 C95.2793722,39.8352507 92.5791625,49.6751074 84.9070164,54.0392691 L65.8017178,64.9054088 C58.118613,69.2750352 48.2536423,66.5819988 43.8778561,58.9291413 L38.0960759,48.8182322 C33.7202897,41.1653746 36.4204994,31.3266109 44.1025083,26.9569844 L63.2089028,16.0908448 C70.8810489,11.7266831 80.7471154,14.4197195 85.1229017,22.0714841" id="Fill-94" fill="#2787B3"></path>
                    <path d="M84.8525611,22.0008869 L88,27.4882755 C82.151954,33.1728416 74.7454462,38.7187334 66.2251287,43.548502 C57.7048112,48.3782707 49.1310918,51.8917161 41.2319793,54 L38.0845405,48.5136949 C33.7328357,40.9277729 36.4181852,31.1750639 44.0579173,26.8436563 L63.0591627,16.0725572 C70.6890863,11.7465666 80.5008564,14.4160484 84.8525611,22.0008869" id="Fill-95" fill="#2AA9B6"></path>
                    <path d="M37.3389383,71.305919 L37.3389383,71.305919 C34.8157346,72.7545083 31.5745549,71.8607211 30.1353542,69.3221474 L23.6898141,57.9448903 C22.2506134,55.4052266 23.1375249,52.1418134 25.6607286,50.6943141 C28.1839323,49.2457248 31.4261949,50.138422 32.8643127,52.6780857 L39.3109357,64.0553428 C40.7490535,66.5950065 39.862142,69.8573298 37.3389383,71.305919" id="Fill-96" fill="#668D9A"></path>
                    <path d="M105.338938,32.3064347 L105.338938,32.3064347 C102.815735,33.7539463 99.5745549,32.8612415 98.1353542,30.3215564 L91.6898141,18.9442029 C90.2506134,16.4045177 91.1375249,13.1421668 93.6607286,11.6935653 C96.1839323,10.2460537 99.4261949,11.1387585 100.864313,13.6784436 L107.310936,25.0557971 C108.749053,27.5943923 107.862142,30.8578332 105.338938,32.3064347" id="Fill-97" fill="#9DC1C9"></path>
                    <polyline id="Fill-98" fill="#9DC1C9" points="52 72.8955 54 72.1045 52 72.8955"></polyline>
                    <polyline id="Fill-99" fill="#9DC1C9" points="119 92.1613906 83.2487252 113 72 92.8386094 107.751275 72 119 92.1613906"></polyline>
                    <path d="M112.539948,88.7661062 C113.497104,90.4457607 112.912474,92.5819367 111.233952,93.5402011 C109.554353,94.4973888 107.418248,93.9116631 106.460015,92.2330854 C105.502859,90.5545076 106.087488,88.4172549 107.767087,87.4600672 C109.44561,86.5028795 111.582792,87.0875285 112.539948,88.7661062" id="Fill-100" fill="#FFFFFE"></path>
                    <path d="M105.802447,80.7570124 C106.21341,81.4763595 105.962328,82.3927109 105.242861,82.8024798 C104.523394,83.2133745 103.608016,82.9623347 103.197053,82.2429876 C102.787216,81.5236405 103.037171,80.6072891 103.756638,80.1975202 C104.476105,79.7866255 105.39261,80.0376653 105.802447,80.7570124" id="Fill-101" fill="#FFFFFE"></path>
                    <polyline id="Fill-102" fill="#FFFFFE" points="95 87.6370723 79.9573124 96 79 94.3629277 94.0426876 86 95 87.6370723"></polyline>
                    <polyline id="Fill-103" fill="#FFFFFE" points="98 92.6368951 82.957246 101 82 99.3631049 97.0416435 91 98 92.6368951"></polyline>
                    <polyline id="Fill-104" fill="#FFFFFE" points="101 97.6370723 85.9583565 106 85 104.362928 100.041644 96 101 97.6370723"></polyline>
                    <path d="M26.1089217,82.8332577 L10.2555042,91.5260371 C8.45842774,92.5119816 6.17093618,91.9099352 5.14562396,90.181859 L4.49284927,89.0814937 C3.46753705,87.3523481 4.09362249,85.1526867 5.89181105,84.1667423 L21.7441165,75.4739629 C23.542305,74.4880184 25.8297966,75.0900648 26.8551088,76.818141 L27.5078835,77.9185063 C28.5320837,79.6476519 27.9059982,81.8473133 26.1089217,82.8332577" id="Fill-105" fill="#668D9A"></path>
                    <path d="M134.109239,20.8332577 L118.255622,29.5260371 C116.458522,30.5119816 114.16989,29.9099352 113.145677,28.181859 L112.492894,27.0814937 C111.467569,25.3523481 112.093662,23.1526867 113.890761,22.1667423 L129.744378,13.4739629 C131.541478,12.4880184 133.83011,13.0900648 134.855435,14.818141 L135.507106,15.9185063 C136.532431,17.6476519 135.906338,19.8473133 134.109239,20.8332577" id="Fill-106" fill="#9DC1C9"></path>
                    <path d="M106.676707,139.99627 L77.0251122,138.557071 C75.2735598,138.471472 73.9217943,136.936402 74.0035187,135.126274 C74.0863475,133.317288 75.5717434,131.919176 77.3232957,132.003634 L106.97489,133.443974 C108.725338,133.528432 110.078208,135.064643 109.996484,136.873629 C109.913655,138.683757 108.427155,140.081869 106.676707,139.99627" id="Fill-107" fill="#668D9A"></path>
                    <path d="M129.90609,127.341895 L143.634749,101.578337 C144.445205,100.056388 143.861633,98.1699536 142.332348,97.363961 C140.801973,96.5568837 138.905092,97.1372417 138.094636,98.6581052 L124.365976,124.421663 C123.55443,125.943612 124.138002,127.830046 125.667287,128.636039 C127.197663,129.443116 129.095634,128.862758 129.90609,127.341895" id="Fill-108" fill="#9DC1C9"></path>
                </g>
            </g>
        </g>
    </g>
</svg>